<svg xmlns="http://www.w3.org/2000/svg" xmlns:xlink="http://www.w3.org/1999/xlink" viewBox="0 0 320.25 320"><defs><style>.cls-1,.cls-13{fill:none;}.cls-2{clip-path:url(#clip-path);}.cls-3{fill:#1081ff;}.cls-13,.cls-3,.cls-4,.cls-5,.cls-6,.cls-7,.cls-8{opacity:0.61;}.cls-4{fill:#ffc600;}.cls-5{fill:#0076f9;}.cls-6{fill:#0054b2;}.cls-7{fill:#004189;}.cls-8{fill:#ffcf27;}.cls-9{opacity:0.82;}.cls-10{fill:#f9f9f9;stroke:#f9f9f9;stroke-width:11px;}.cls-10,.cls-11,.cls-12,.cls-13{stroke-miterlimit:10;}.cls-11{fill:#191919;stroke:#191919;}.cls-11,.cls-12{stroke-width:5px;}.cls-12{fill:#0077f9;stroke:#0077f9;}.cls-13{stroke:#fff;stroke-width:4px;}</style><clipPath id="clip-path"><circle class="cls-1" cx="160" cy="160.13" r="160"/></clipPath></defs><title>ltr-outline-font</title><g id="Layer_13" data-name="Layer 13"><g class="cls-2"><circle class="cls-3" cx="176.5" cy="28.63" r="160"/><circle class="cls-4" cx="80.5" cy="79.63" r="160"/><circle class="cls-5" cx="270.5" cy="124.63" r="160"/><circle class="cls-6" cx="311.5" cy="180.63" r="160"/><circle class="cls-7" cx="258.5" cy="309.63" r="160"/><circle class="cls-4" cx="12.5" cy="128.63" r="160"/><circle class="cls-8" cx="88.5" cy="233.63" r="160"/></g></g><g id="Layer_10" data-name="Layer 10"><g class="cls-9"><path class="cls-10" d="M86.82,232.57a2.78,2.78,0,0,1-.49,1.65,3.84,3.84,0,0,1-1.59,1.16,11.25,11.25,0,0,1-3,.73,42.11,42.11,0,0,1-5,.25,40.93,40.93,0,0,1-4.89-.25,12.18,12.18,0,0,1-3.11-.73,3.42,3.42,0,0,1-1.59-1.16,3.06,3.06,0,0,1-.42-1.65V69.49a3.33,3.33,0,0,1,.42-1.71,3.18,3.18,0,0,1,1.59-1.22,12.14,12.14,0,0,1,3.11-.74,41.2,41.2,0,0,1,4.89-.24,42.41,42.41,0,0,1,5,.24,11.21,11.21,0,0,1,3,.74,3.53,3.53,0,0,1,1.59,1.22,3,3,0,0,1,.49,1.71Z"/><path class="cls-10" d="M181.18,224.51a25.86,25.86,0,0,1-.49,5.62,6.34,6.34,0,0,1-1.46,3.05A9.74,9.74,0,0,1,176.3,235a24.38,24.38,0,0,1-4.46,1.41c-1.67.36-3.44.67-5.31.91a46.85,46.85,0,0,1-20.26-1.89,23.62,23.62,0,0,1-10-6.84A28.06,28.06,0,0,1,130.58,217a68.26,68.26,0,0,1-1.77-16.54V136.26H113.43a3.29,3.29,0,0,1-2.93-2q-1.09-2-1.1-6.34a20.55,20.55,0,0,1,.31-3.91,10.76,10.76,0,0,1,.79-2.62,3.08,3.08,0,0,1,1.28-1.47,3.74,3.74,0,0,1,1.77-.43h15.26V93.41a3.06,3.06,0,0,1,.43-1.59,3.53,3.53,0,0,1,1.58-1.28,10.59,10.59,0,0,1,3.12-.79,40.87,40.87,0,0,1,4.88-.25,42.42,42.42,0,0,1,5,.25,9.83,9.83,0,0,1,3,.79,4,4,0,0,1,1.58,1.28,2.79,2.79,0,0,1,.49,1.59v26.12h28.2a3.39,3.39,0,0,1,1.71.43,3.56,3.56,0,0,1,1.28,1.47,8.11,8.11,0,0,1,.79,2.62,25.29,25.29,0,0,1,.25,3.91q0,4.39-1.1,6.34a3.29,3.29,0,0,1-2.93,2H149v61.28q0,11.36,3.36,17.15t12,5.8a21.11,21.11,0,0,0,5-.55c1.46-.37,2.76-.75,3.9-1.16s2.12-.8,2.93-1.16a5.42,5.42,0,0,1,2.2-.55,2.39,2.39,0,0,1,1.16.3,2,2,0,0,1,.85,1.16,13.28,13.28,0,0,1,.55,2.32A22,22,0,0,1,181.18,224.51Z"/><path class="cls-10" d="M272,129.91c0,1.79,0,3.3-.12,4.52a11.86,11.86,0,0,1-.49,2.87,4.15,4.15,0,0,1-.92,1.58,2,2,0,0,1-1.52.55,6.62,6.62,0,0,1-2.38-.55c-.94-.36-2-.73-3.18-1.1s-2.5-.71-4-1a21.74,21.74,0,0,0-4.76-.49,15.53,15.53,0,0,0-6,1.22,23.24,23.24,0,0,0-6.16,4,49.94,49.94,0,0,0-6.78,7.44q-3.54,4.65-7.81,11.36v72.26a2.71,2.71,0,0,1-.49,1.65,3.8,3.8,0,0,1-1.58,1.16,11.34,11.34,0,0,1-3.06.73,42.11,42.11,0,0,1-5,.25,40.87,40.87,0,0,1-4.88-.25,12.27,12.27,0,0,1-3.12-.73,3.34,3.34,0,0,1-1.58-1.16,3,3,0,0,1-.43-1.65V122.71a3.35,3.35,0,0,1,.37-1.65,3.23,3.23,0,0,1,1.46-1.22,8.15,8.15,0,0,1,2.81-.73,53,53,0,0,1,9,0,7.12,7.12,0,0,1,2.75.73,3.81,3.81,0,0,1,1.4,1.22,3,3,0,0,1,.43,1.65v16A85.53,85.53,0,0,1,234.46,128a46.52,46.52,0,0,1,7.51-6.53,23.18,23.18,0,0,1,7-3.3,27.5,27.5,0,0,1,7-.92c1.05,0,2.26.07,3.6.19a33.92,33.92,0,0,1,4.21.67,36.56,36.56,0,0,1,4,1.1,8.35,8.35,0,0,1,2.5,1.22,3.51,3.51,0,0,1,1,1.16,7.17,7.17,0,0,1,.42,1.4,14.58,14.58,0,0,1,.25,2.5C272,126.55,272,128,272,129.91Z"/></g></g><g id="Layer_11" data-name="Layer 11"><g class="cls-9"><path class="cls-11" d="M85.82,232.57a2.78,2.78,0,0,1-.49,1.65,3.84,3.84,0,0,1-1.59,1.16,11.25,11.25,0,0,1-3,.73,42.11,42.11,0,0,1-5,.25,40.93,40.93,0,0,1-4.89-.25,12.18,12.18,0,0,1-3.11-.73,3.42,3.42,0,0,1-1.59-1.16,3.06,3.06,0,0,1-.42-1.65V69.49a3.33,3.33,0,0,1,.42-1.71,3.18,3.18,0,0,1,1.59-1.22,12.14,12.14,0,0,1,3.11-.74,41.2,41.2,0,0,1,4.89-.24,42.41,42.41,0,0,1,5,.24,11.21,11.21,0,0,1,3,.74,3.53,3.53,0,0,1,1.59,1.22,3,3,0,0,1,.49,1.71Z"/><path class="cls-11" d="M180.18,224.51a25.86,25.86,0,0,1-.49,5.62,6.34,6.34,0,0,1-1.46,3.05A9.74,9.74,0,0,1,175.3,235a24.38,24.38,0,0,1-4.46,1.41c-1.67.36-3.44.67-5.31.91a46.85,46.85,0,0,1-20.26-1.89,23.62,23.62,0,0,1-10-6.84A28.06,28.06,0,0,1,129.58,217a68.26,68.26,0,0,1-1.77-16.54V136.26H112.43a3.29,3.29,0,0,1-2.93-2q-1.09-2-1.1-6.34a20.55,20.55,0,0,1,.31-3.91,10.76,10.76,0,0,1,.79-2.62,3.08,3.08,0,0,1,1.28-1.47,3.74,3.74,0,0,1,1.77-.43h15.26V93.41a3.06,3.06,0,0,1,.43-1.59,3.53,3.53,0,0,1,1.58-1.28,10.59,10.59,0,0,1,3.12-.79,40.87,40.87,0,0,1,4.88-.25,42.42,42.42,0,0,1,5,.25,9.83,9.83,0,0,1,3,.79,4,4,0,0,1,1.58,1.28,2.79,2.79,0,0,1,.49,1.59v26.12h28.2a3.39,3.39,0,0,1,1.71.43,3.56,3.56,0,0,1,1.28,1.47,8.11,8.11,0,0,1,.79,2.62,25.29,25.29,0,0,1,.25,3.91q0,4.39-1.1,6.34a3.29,3.29,0,0,1-2.93,2H148v61.28q0,11.36,3.36,17.15t12,5.8a21.11,21.11,0,0,0,5-.55c1.46-.37,2.76-.75,3.9-1.16s2.12-.8,2.93-1.16a5.42,5.42,0,0,1,2.2-.55,2.39,2.39,0,0,1,1.16.3,2,2,0,0,1,.85,1.16,13.28,13.28,0,0,1,.55,2.32A22,22,0,0,1,180.18,224.51Z"/><path class="cls-11" d="M271,129.91c0,1.79,0,3.3-.12,4.52a11.86,11.86,0,0,1-.49,2.87,4.15,4.15,0,0,1-.92,1.58,2,2,0,0,1-1.52.55,6.62,6.62,0,0,1-2.38-.55c-.94-.36-2-.73-3.18-1.1s-2.5-.71-4-1a21.74,21.74,0,0,0-4.76-.49,15.53,15.53,0,0,0-6,1.22,23.24,23.24,0,0,0-6.16,4,49.94,49.94,0,0,0-6.78,7.44q-3.54,4.65-7.81,11.36v72.26a2.71,2.71,0,0,1-.49,1.65,3.8,3.8,0,0,1-1.58,1.16,11.34,11.34,0,0,1-3.06.73,42.11,42.11,0,0,1-5,.25,40.87,40.87,0,0,1-4.88-.25,12.27,12.27,0,0,1-3.12-.73,3.34,3.34,0,0,1-1.58-1.16,3,3,0,0,1-.43-1.65V122.71a3.35,3.35,0,0,1,.37-1.65,3.23,3.23,0,0,1,1.46-1.22,8.15,8.15,0,0,1,2.81-.73,53,53,0,0,1,9,0,7.12,7.12,0,0,1,2.75.73,3.81,3.81,0,0,1,1.4,1.22,3,3,0,0,1,.43,1.65v16A85.53,85.53,0,0,1,233.46,128a46.52,46.52,0,0,1,7.51-6.53,23.18,23.18,0,0,1,7-3.3,27.5,27.5,0,0,1,7-.92c1.05,0,2.26.07,3.6.19a33.92,33.92,0,0,1,4.21.67,36.56,36.56,0,0,1,4,1.1,8.35,8.35,0,0,1,2.5,1.22,3.51,3.51,0,0,1,1,1.16,7.17,7.17,0,0,1,.42,1.4,14.58,14.58,0,0,1,.25,2.5C271,126.55,271,128,271,129.91Z"/></g></g><g id="Letras"><g class="cls-9"><path class="cls-12" d="M86.82,231.57a2.78,2.78,0,0,1-.49,1.65,3.84,3.84,0,0,1-1.59,1.16,11.25,11.25,0,0,1-3,.73,42.11,42.11,0,0,1-5,.25,40.93,40.93,0,0,1-4.89-.25,12.18,12.18,0,0,1-3.11-.73,3.42,3.42,0,0,1-1.59-1.16,3.06,3.06,0,0,1-.42-1.65V68.49a3.33,3.33,0,0,1,.42-1.71,3.18,3.18,0,0,1,1.59-1.22,12.14,12.14,0,0,1,3.11-.74,41.2,41.2,0,0,1,4.89-.24,42.41,42.41,0,0,1,5,.24,11.21,11.21,0,0,1,3,.74,3.53,3.53,0,0,1,1.59,1.22,3,3,0,0,1,.49,1.71Z"/><path class="cls-12" d="M181.18,223.51a25.86,25.86,0,0,1-.49,5.62,6.34,6.34,0,0,1-1.46,3.05A9.74,9.74,0,0,1,176.3,234a24.38,24.38,0,0,1-4.46,1.41c-1.67.36-3.44.67-5.31.91a46.85,46.85,0,0,1-20.26-1.89,23.62,23.62,0,0,1-10-6.84A28.06,28.06,0,0,1,130.58,216a68.26,68.26,0,0,1-1.77-16.54V135.26H113.43a3.29,3.29,0,0,1-2.93-2q-1.09-2-1.1-6.34a20.55,20.55,0,0,1,.31-3.91,10.76,10.76,0,0,1,.79-2.62,3.08,3.08,0,0,1,1.28-1.47,3.74,3.74,0,0,1,1.77-.43h15.26V92.41a3.06,3.06,0,0,1,.43-1.59,3.53,3.53,0,0,1,1.58-1.28,10.59,10.59,0,0,1,3.12-.79,40.87,40.87,0,0,1,4.88-.25,42.42,42.42,0,0,1,5,.25,9.83,9.83,0,0,1,3,.79,4,4,0,0,1,1.58,1.28,2.79,2.79,0,0,1,.49,1.59v26.12h28.2a3.39,3.39,0,0,1,1.71.43,3.56,3.56,0,0,1,1.28,1.47,8.11,8.11,0,0,1,.79,2.62,25.29,25.29,0,0,1,.25,3.91q0,4.39-1.1,6.34a3.29,3.29,0,0,1-2.93,2H149v61.28q0,11.36,3.36,17.15t12,5.8a21.11,21.11,0,0,0,5-.55c1.46-.37,2.76-.75,3.9-1.16s2.12-.8,2.93-1.16a5.42,5.42,0,0,1,2.2-.55,2.39,2.39,0,0,1,1.16.3,2,2,0,0,1,.85,1.16,13.28,13.28,0,0,1,.55,2.32A22,22,0,0,1,181.18,223.51Z"/><path class="cls-12" d="M272,128.91c0,1.79,0,3.3-.12,4.52a11.86,11.86,0,0,1-.49,2.87,4.15,4.15,0,0,1-.92,1.58,2,2,0,0,1-1.52.55,6.62,6.62,0,0,1-2.38-.55c-.94-.36-2-.73-3.18-1.1s-2.5-.71-4-1a21.74,21.74,0,0,0-4.76-.49,15.53,15.53,0,0,0-6,1.22,23.24,23.24,0,0,0-6.16,4,49.94,49.94,0,0,0-6.78,7.44q-3.54,4.65-7.81,11.36v72.26a2.71,2.71,0,0,1-.49,1.65,3.8,3.8,0,0,1-1.58,1.16,11.34,11.34,0,0,1-3.06.73,42.11,42.11,0,0,1-5,.25,40.87,40.87,0,0,1-4.88-.25,12.27,12.27,0,0,1-3.12-.73,3.34,3.34,0,0,1-1.58-1.16,3,3,0,0,1-.43-1.65V121.71a3.35,3.35,0,0,1,.37-1.65,3.23,3.23,0,0,1,1.46-1.22,8.15,8.15,0,0,1,2.81-.73,53,53,0,0,1,9,0,7.12,7.12,0,0,1,2.75.73,3.81,3.81,0,0,1,1.4,1.22,3,3,0,0,1,.43,1.65v16A85.53,85.53,0,0,1,234.46,127a46.52,46.52,0,0,1,7.51-6.53,23.18,23.18,0,0,1,7-3.3,27.5,27.5,0,0,1,7-.92c1.05,0,2.26.07,3.6.19a33.92,33.92,0,0,1,4.21.67,36.56,36.56,0,0,1,4,1.1,8.35,8.35,0,0,1,2.5,1.22,3.51,3.51,0,0,1,1,1.16,7.17,7.17,0,0,1,.42,1.4,14.58,14.58,0,0,1,.25,2.5C272,125.55,272,127,272,128.91Z"/></g></g><g id="Circulo_do_Meio" data-name="Circulo do Meio"><circle class="cls-13" cx="160" cy="160.13" r="160"/></g></svg>